<svg width="15" height="32" viewBox="0 0 15 32" fill="none" xmlns="http://www.w3.org/2000/svg">
<g clip-path="url(#clip0)">
<path d="M22.3604 20.9023C22.3604 20.9023 21.3145 21.3535 16.3447 21.3535C11.375 21.3535 3.43847 20.875 0.334958 18.1406C0.560544 17.9561 3.67773 14.3125 12.0996 14.3125C20.5215 14.3125 22.3535 14.3125 22.3535 14.3125L22.3604 20.9023Z" fill="#FFCB5C"/>
<path d="M10.2402 21.0869C9.8916 20.2735 9.84375 19.3301 9.84375 18.7559C9.84375 18.1133 9.84375 15.8369 9.84375 14.4082C10.3223 14.3672 10.8213 14.3399 11.3477 14.3262V19.1045C11.3477 20.5743 12.0039 21.1485 12.1133 21.2373C11.498 21.1963 10.8691 21.1485 10.2402 21.0869Z" fill="#FFB30F"/>
<path d="M5.67383 17.8603C5.67383 19.3711 6.10449 20.3691 6.17285 20.5127C5.53027 20.3828 4.9082 20.2324 4.31348 20.0683C4.14258 19.3984 3.96485 18.5371 3.96485 17.833C3.96485 17.2793 4.07422 16.459 4.19727 15.6865C4.75098 15.4609 5.37305 15.249 6.06348 15.0576C5.87891 16.0146 5.67383 17.2109 5.67383 17.8603Z" fill="#FFB30F"/>
<path d="M20.0977 17.7305H10.3906L4.16992 14.3125H20.0977V17.7305Z" fill="#2B6E37"/>
<path d="M10.999 6.49902L6.6377 28.8799L3.31543 27.5742L1.70898 28.873V27.5059L3.14453 26.4805L5.87891 27.4443L10.1992 5.42578H11.0059L10.999 6.49902Z" fill="#F89720"/>
<path d="M10.9171 4.12695C11.9493 4.12695 13.1183 5.07715 12.6329 6.41016C12.1544 7.74316 16.4132 12.4531 17.5138 14.7842C18.6144 17.1152 19.1681 21.3535 16.3517 21.3535C13.5353 21.3535 12.9132 17.833 12.5031 15.7891C12.0929 13.7451 11.5392 7.51074 11.3341 6.98438C11.129 6.45801 8.57923 4.12695 10.9171 4.12695V4.12695Z" fill="#47B85B"/>
<path d="M18.1494 20.164C17.8555 20.8818 17.2881 21.3535 16.3447 21.3535C13.5283 21.3535 12.9062 17.833 12.4961 15.789C12.1406 14.0117 11.6758 9.06931 11.4229 7.46286C11.9287 9.82809 14.3418 20.164 18.1494 20.164V20.164Z" fill="#399349"/>
<path d="M1.70898 29.2148C1.78417 29.2148 1.85937 29.1875 1.92089 29.1396L3.37011 27.9639L6.50097 29.1875C6.59668 29.2217 6.69922 29.2148 6.78808 29.167C6.87695 29.1191 6.93847 29.0303 6.95898 28.9346L11.3271 6.56055L10.6572 6.43066L6.37109 28.4014L3.43847 27.2529C3.32226 27.2051 3.19238 27.2256 3.09667 27.3076L2.04394 28.1553V27.6768L3.19238 26.8564L5.76269 27.752C5.85839 27.7861 5.96093 27.7725 6.04297 27.7246C6.13183 27.6768 6.18652 27.5879 6.20703 27.4922L10.5342 5.49414L9.86426 5.36426L5.61914 26.9863L3.2539 26.1592C3.15136 26.125 3.03515 26.1387 2.93945 26.207L1.5039 27.2324C1.41503 27.2939 1.36035 27.4033 1.36035 27.5127V28.8799C1.36035 29.0098 1.43554 29.1328 1.55175 29.1875C1.60644 29.2012 1.66113 29.2148 1.70898 29.2148V29.2148Z" fill="#4D2419"/>
<path d="M12.2363 13.9707H9.43359V14.6543H12.2363V13.9707Z" fill="#4D2419"/>
<path d="M7.75879 17.5186L8.02539 16.8897C6.59668 16.2881 5.50293 15.2764 4.91504 14.6543H8.47656V13.9707H4.16992C4.04004 13.9707 3.92383 14.0459 3.86231 14.1621C3.80762 14.2784 3.81445 14.4151 3.89649 14.5176C3.95801 14.5996 5.4209 16.5342 7.75879 17.5186Z" fill="#4D2419"/>
<path d="M10.3906 18.0723H12.9199V17.3887H10.3906C9.90527 17.3887 9.41309 17.3271 8.92773 17.1973L8.75684 17.8604C9.29688 18.0039 9.85059 18.0723 10.3906 18.0723Z" fill="#4D2419"/>
<path d="M16.3515 21.6953C17.1854 21.6953 17.8485 21.3535 18.2587 20.7041C18.6825 20.041 18.8056 19.0908 18.7372 18.0723H20.1044C20.2138 18.0723 20.3163 18.0176 20.3778 17.9287C20.4393 17.8398 20.4599 17.7236 20.4257 17.6211L19.3319 14.2031C19.2841 14.0596 19.1542 13.9639 19.0038 13.9639H17.2743C17.1513 13.9639 17.0419 14.0254 16.9804 14.1348C16.9188 14.2441 16.9188 14.3672 16.9804 14.4766C17.0692 14.6406 17.1513 14.791 17.2196 14.9277C18.0399 16.6572 18.4364 19.1592 17.6913 20.335C17.4042 20.7861 16.9667 21.0049 16.3583 21.0049C13.9042 21.0049 13.289 17.9287 12.8788 15.8984L12.8446 15.7139C12.6327 14.6543 12.3798 12.4395 12.1542 10.4912C11.8808 8.11231 11.7645 7.11426 11.6552 6.85449C11.5936 6.69727 11.4433 6.49902 11.1766 6.1709C10.9511 5.88379 10.664 5.52832 10.4794 5.20019C10.2333 4.76953 10.288 4.62598 10.2948 4.6123C10.3222 4.55762 10.4862 4.46191 10.9237 4.46191C11.4091 4.46191 11.9218 4.72168 12.1952 5.11133C12.3593 5.35059 12.5165 5.74707 12.3251 6.28711C11.9901 7.20996 13.1181 8.8916 15.0184 11.5508C15.4013 12.084 15.7909 12.6377 16.1395 13.1436L16.7069 12.7607C16.3583 12.248 15.9618 11.6943 15.579 11.1543C14.8612 10.1563 14.1229 9.11719 13.6171 8.24902C12.9061 7.0459 12.9335 6.64258 12.9745 6.51953C13.2069 5.88379 13.1317 5.24121 12.7626 4.72168C12.3593 4.14746 11.6415 3.77832 10.9306 3.77832C10.6845 3.77832 9.94618 3.77832 9.68642 4.31152C9.36513 4.96777 10.0761 5.87012 10.6503 6.58789C10.8007 6.7793 10.9921 7.01855 11.0263 7.10059C11.1083 7.33301 11.3065 9.04883 11.4774 10.5664C11.703 12.5283 11.9559 14.7568 12.1747 15.8506L12.2089 16.0352C12.6259 18.1543 13.3368 21.6953 16.3515 21.6953ZM19.6327 17.3887H18.662C18.5184 16.4316 18.2177 15.4609 17.8417 14.6543H18.7645L19.6327 17.3887Z" fill="#4D2419"/>
<path d="M11.9355 21.5107L12.332 20.9502L12.1338 21.2305L12.3389 20.957C12.3115 20.9365 11.7236 20.4785 11.6963 19.0908L11.0127 19.1045C11.0469 20.8613 11.9014 21.4834 11.9355 21.5107V21.5107Z" fill="#4D2419"/>
<path d="M5.87891 20.6836L6.49414 20.376L6.18652 20.5195L6.49414 20.3828C6.4873 20.376 6.02246 19.3711 6.02246 17.8672H5.33887C5.33203 19.5078 5.85156 20.6357 5.87891 20.6836Z" fill="#4D2419"/>
<path d="M7.10937 21.0322L7.22559 20.3554C4.2998 19.8633 2.16015 19.1113 0.854491 18.1201C2.24219 16.8418 3.97851 16.083 5.22265 15.666L5.00391 15.0166C3.63672 15.4746 1.68848 16.3359 0.18457 17.8125L0.123044 17.874C0.0410132 17.9355 -1.62199e-06 18.0312 -1.62199e-06 18.1338C-1.62199e-06 18.2363 0.0410148 18.332 0.11621 18.3935C1.46973 19.5967 3.82129 20.4785 7.10937 21.0322V21.0322Z" fill="#4D2419"/>
<path d="M16.3447 21.6953C17.2744 21.6953 18.1289 21.6816 18.8877 21.6475L18.8604 20.9639C18.1084 20.998 17.2607 21.0117 16.3447 21.0117C14.2734 21.0117 11.1836 20.9229 8.23731 20.5127L8.1416 21.1895C11.1357 21.6064 14.2529 21.6953 16.3447 21.6953V21.6953Z" fill="#4D2419"/>
</g>
</svg>
