<svg width="24" height="32" viewBox="0 0 24 32" fill="none" xmlns="http://www.w3.org/2000/svg">
<g clip-path="url(#clip0)">
<path d="M11.3604 18.9023C11.3604 18.9023 10.3145 19.3535 5.34473 19.3535C0.374999 19.3535 -7.56153 18.875 -10.665 16.1406C-10.4395 15.9561 -7.32227 12.3125 1.09961 12.3125C9.52148 12.3125 11.3535 12.3125 11.3535 12.3125L11.3604 18.9023Z" fill="#FFCB5C"/>
<path d="M-0.759768 19.0869C-1.1084 18.2735 -1.15625 17.3301 -1.15625 16.7559C-1.15625 16.1133 -1.15625 13.8369 -1.15625 12.4082C-0.677736 12.3672 -0.178712 12.3399 0.347655 12.3262V17.1045C0.347655 18.5743 1.00391 19.1485 1.11328 19.2373C0.498047 19.1963 -0.130862 19.1485 -0.759768 19.0869Z" fill="#FFB30F"/>
<path d="M9.09766 15.7305H-0.609375L-6.83008 12.3125H9.09766V15.7305Z" fill="#2B6E37"/>
<path d="M17.1641 12.3125H8.00391L9.57617 17.1865C9.57617 17.1865 10.1777 19.1143 12.6592 19.1143C15.1406 19.1143 15.7285 16.9473 15.7285 16.9473L17.1641 12.3125Z" fill="#399349"/>
<path d="M8.40723 18.0547L6.5 22.9082V25.7793L5.88477 26.873H7.1836L7.75098 25.9844L7.66211 23.0107L9.35059 18.0547H8.40723Z" fill="#F89720"/>
<path d="M-0.00097698 4.49902L-4.3623 26.8799L-7.68457 25.5742L-9.29102 26.873V25.5059L-7.85547 24.4805L-5.12109 25.4443L-0.80078 3.42578H0.00585938L-0.00097698 4.49902Z" fill="#F89720"/>
<path d="M-0.0828837 2.12695C0.949343 2.12695 2.11829 3.07715 1.63293 4.41016C1.15442 5.74316 5.41321 10.4531 6.51379 12.7842C7.61438 15.1152 8.16809 19.3535 5.35169 19.3535C2.53528 19.3535 1.91321 15.833 1.50305 13.7891C1.0929 11.7451 0.539185 5.51074 0.334107 4.98438C0.129029 4.45801 -2.42077 2.12695 -0.0828837 2.12695V2.12695Z" fill="#47B85B"/>
<path d="M7.14941 18.164C6.85547 18.8818 6.28809 19.3535 5.34473 19.3535C2.52832 19.3535 1.90625 15.833 1.49609 13.789C1.14062 12.0117 0.675781 7.06931 0.422851 5.46286C0.928711 7.82809 3.3418 18.164 7.14941 18.164V18.164Z" fill="#399349"/>
<path d="M17.1641 12.3125L15.7285 16.9473C15.7285 16.9473 15.1475 19.1074 12.6592 19.1074C14.6348 15.1494 14.3135 12.3125 14.3135 12.3125H17.1641Z" fill="#2B6E37"/>
<path d="M14.5322 16.3457L15.5371 19.6338L21.5596 23.1816L23.6582 26.873H22.2227L20.5615 23.8652L14.7236 20.2627L13.2676 16.3457H14.5322Z" fill="#F89720"/>
<path d="M17.7656 13.0303C17.7998 13.0303 17.834 13.0234 17.8682 13.0166L20.9443 12.0801C20.9854 12.0664 21.0264 12.0459 21.0605 12.0186C21.1768 11.9229 24 9.5918 24 2.12695H23.3164C23.3164 8.75781 21.0195 11.123 20.6777 11.4443L20.1582 11.6016C20.4795 11.1094 21.1904 9.22266 21.1904 2.12695H20.5068C20.5068 6.50195 20.2334 8.78516 20.001 9.93359C19.8232 10.8291 19.6455 11.1572 19.6113 11.2119L17.6016 12.3945C17.4512 12.4834 17.3896 12.668 17.4648 12.8252C17.5127 12.9551 17.6357 13.0303 17.7656 13.0303V13.0303Z" fill="#2B6E37"/>
<path d="M18.8115 11.4307C20.4316 11.4307 21.8809 11.6973 21.8809 13.6114C21.8809 15.5254 20.0693 19.6338 18.8184 19.6338C16.0977 19.6338 15.7285 16.9473 15.7285 16.9473V12.3125C15.7285 12.3125 16.7881 11.4307 18.8115 11.4307Z" fill="#399349"/>
<path d="M18.791 15.6758C18.2247 15.6758 17.7656 14.9719 17.7656 14.1035C17.7656 13.2352 18.2247 12.5313 18.791 12.5313C19.3573 12.5313 19.8164 13.2352 19.8164 14.1035C19.8164 14.9719 19.3573 15.6758 18.791 15.6758Z" fill="#FFCB5C"/>
<path d="M18.791 13.2832C18.791 13.0166 18.832 12.7636 18.9141 12.5449C19.4268 12.6338 19.8164 13.3037 19.8164 14.1035C19.8164 14.3701 19.7754 14.623 19.6934 14.8418C19.1875 14.7529 18.791 14.0898 18.791 13.2832Z" fill="#FFE3A8"/>
<path d="M-9.29102 27.2148C-9.21583 27.2148 -9.14063 27.1875 -9.07911 27.1396L-7.62989 25.9639L-4.49903 27.1875C-4.40332 27.2217 -4.30078 27.2148 -4.21192 27.167C-4.12305 27.1191 -4.06153 27.0303 -4.04102 26.9346L0.327148 4.56055L-0.342775 4.43066L-4.62891 26.4014L-7.56153 25.2529C-7.67774 25.2051 -7.80762 25.2256 -7.90333 25.3076L-8.95606 26.1553V25.6768L-7.80762 24.8564L-5.23731 25.752C-5.14161 25.7861 -5.03907 25.7725 -4.95703 25.7246C-4.86817 25.6768 -4.81348 25.5879 -4.79297 25.4922L-0.465821 3.49414L-1.13574 3.36426L-5.38086 24.9863L-7.7461 24.1592C-7.84864 24.125 -7.96485 24.1387 -8.06055 24.207L-9.4961 25.2324C-9.58497 25.2939 -9.63965 25.4033 -9.63965 25.5127V26.8799C-9.63965 27.0098 -9.56446 27.1328 -9.44825 27.1875C-9.39356 27.2012 -9.33887 27.2148 -9.29102 27.2148V27.2148Z" fill="#4D2419"/>
<path d="M18.8184 19.9756C19.7891 19.9756 20.6846 18.417 21.1289 17.4941C21.792 16.1133 22.2227 14.5889 22.2227 13.6182C22.2227 12.6133 21.8535 11.9023 21.1152 11.5059C20.4385 11.1436 19.5703 11.0889 18.8115 11.0889C16.6924 11.0889 15.5576 12.0117 15.5098 12.0459C15.4346 12.1143 15.3867 12.21 15.3867 12.3057V16.9404V16.9883C15.3936 17.0225 15.8311 19.9756 18.8184 19.9756ZM18.8115 11.7725C20.4932 11.7725 21.5391 12.0801 21.5391 13.6113C21.5391 14.4727 21.1289 15.915 20.5137 17.1934C19.8164 18.6357 19.1465 19.292 18.8184 19.292C16.5283 19.292 16.1113 17.1729 16.0703 16.9199V12.4902C16.3916 12.2783 17.3281 11.7725 18.8115 11.7725V11.7725Z" fill="#4D2419"/>
<path d="M18.791 16.0176C19.5566 16.0176 20.1582 15.1768 20.1582 14.1035C20.1582 13.0303 19.5566 12.1895 18.791 12.1895C18.0254 12.1895 17.4238 13.0303 17.4238 14.1035C17.4238 15.1768 18.0254 16.0176 18.791 16.0176ZM18.791 12.873C19.1123 12.873 19.4746 13.3789 19.4746 14.1035C19.4746 14.8281 19.1123 15.334 18.791 15.334C18.4697 15.334 18.1074 14.8281 18.1074 14.1035C18.1074 13.3789 18.4697 12.873 18.791 12.873Z" fill="#4D2419"/>
<path d="M12.6592 19.4493C13.2744 19.4493 13.8281 19.3262 14.3203 19.0869L14.0195 18.4717C13.623 18.67 13.165 18.7657 12.6592 18.7657C10.4512 18.7657 9.9043 17.0977 9.9043 17.0772L8.47559 12.6475H15.3867V16.8858C15.3457 17.0157 15.1816 17.4463 14.8125 17.8565L15.3252 18.3145C15.8789 17.6993 16.0566 17.0498 16.0635 17.0225C16.0703 16.9952 16.0771 16.961 16.0771 16.9336V12.3125C16.0771 12.1211 15.9268 11.9707 15.7354 11.9707H8.01074C7.90137 11.9707 7.79883 12.0254 7.73731 12.1143C7.67578 12.2032 7.65527 12.3194 7.68945 12.4219L9.26172 17.2959C9.26856 17.3164 9.43945 17.8565 9.95215 18.3897C10.4033 18.8682 11.2578 19.4493 12.6592 19.4493Z" fill="#4D2419"/>
<path d="M21.0537 12.0186C21.1768 11.9229 24 9.5918 24 2.12695H23.3164C23.3164 5.83887 22.585 8.19043 21.9697 9.50293C21.3066 10.9248 20.6367 11.4785 20.6299 11.4785L21.0537 12.0186Z" fill="#4D2419"/>
<path d="M20.0352 11.7451C20.2266 11.5879 21.1836 10.3916 21.1836 2.12695H20.5C20.5 6.50195 20.2266 8.78516 19.9941 9.93359C19.7959 10.9111 19.6045 11.2188 19.5977 11.2188L20.0352 11.7451Z" fill="#4D2419"/>
<path d="M1.23633 11.9707H-1.56641V12.6543H1.23633V11.9707Z" fill="#4D2419"/>
<path d="M-0.609375 16.0723H1.91992V15.3887H-0.609375C-1.09473 15.3887 -1.58691 15.3271 -2.07227 15.1973L-2.24316 15.8604C-1.70312 16.0039 -1.14941 16.0723 -0.609375 16.0723Z" fill="#4D2419"/>
<path d="M5.35146 19.6953C6.18544 19.6953 6.84853 19.3535 7.25868 18.7041C7.68251 18.041 7.80556 17.0908 7.7372 16.0723H9.10438C9.21376 16.0723 9.3163 16.0176 9.37782 15.9287C9.43935 15.8398 9.45985 15.7236 9.42567 15.6211L8.33192 12.2031C8.28407 12.0596 8.15419 11.9639 8.0038 11.9639H6.27431C6.15126 11.9639 6.04188 12.0254 5.98036 12.1348C5.91884 12.2441 5.91884 12.3672 5.98036 12.4766C6.06923 12.6406 6.15126 12.791 6.21962 12.9277C7.03993 14.6572 7.43642 17.1592 6.6913 18.335C6.40419 18.7861 5.96669 19.0049 5.35829 19.0049C2.90419 19.0049 2.28895 15.9287 1.8788 13.8984L1.84462 13.7139C1.6327 12.6543 1.37977 10.4395 1.15419 8.49121C0.880751 6.11231 0.764541 5.11426 0.655166 4.85449C0.593642 4.69727 0.443251 4.49902 0.17665 4.1709C-0.048936 3.88379 -0.336046 3.52832 -0.520616 3.20019C-0.76671 2.76953 -0.712021 2.62598 -0.705185 2.6123C-0.677842 2.55762 -0.51378 2.46191 -0.0762805 2.46191C0.409071 2.46191 0.921767 2.72168 1.1952 3.11133C1.35927 3.35059 1.51649 3.74707 1.32509 4.28711C0.990126 5.20996 2.11806 6.8916 4.01845 9.55078C4.40126 10.084 4.79091 10.6377 5.13954 11.1436L5.70692 10.7607C5.35829 10.248 4.96181 9.69434 4.57899 9.1543C3.86122 8.15625 3.12294 7.11719 2.61708 6.24902C1.90614 5.0459 1.93349 4.64258 1.9745 4.51953C2.20692 3.88379 2.13173 3.24121 1.76259 2.72168C1.35927 2.14746 0.641493 1.77832 -0.0694442 1.77832C-0.315538 1.77832 -1.05382 1.77832 -1.31358 2.31152C-1.63487 2.96777 -0.923937 3.87012 -0.349718 4.58789C-0.199327 4.7793 -0.00792117 5.01855 0.0262585 5.10059C0.10829 5.33301 0.306532 7.04883 0.477431 8.56641C0.703017 10.5283 0.955948 12.7568 1.1747 13.8506L1.20888 14.0352C1.62587 16.1543 2.33681 19.6953 5.35146 19.6953ZM8.6327 15.3887H7.662C7.51845 14.4316 7.21767 13.4609 6.84169 12.6543H7.76454L8.6327 15.3887Z" fill="#4D2419"/>
<path d="M22.2227 27.2148H23.6582C23.7812 27.2148 23.8906 27.1533 23.9521 27.0439C24.0137 26.9346 24.0137 26.8115 23.9521 26.7021L21.8535 23.0107C21.8262 22.9561 21.7783 22.915 21.7305 22.8877L15.8242 19.4082L14.8535 16.2432C14.8125 16.0996 14.6758 16.0039 14.5254 16.0039H13.2676C13.1582 16.0039 13.0488 16.0586 12.9873 16.1475C12.9258 16.2363 12.9053 16.3594 12.9463 16.4619L14.4023 20.3789C14.4297 20.4473 14.4775 20.5088 14.5459 20.5498L15.6191 21.2129L15.9814 20.6318L15.0107 20.0303L13.7666 16.6807H14.2861L15.2227 19.7295C15.25 19.8115 15.3047 19.8799 15.373 19.9209L21.3135 23.4209L23.0703 26.5312H22.4209L20.8555 23.7012C20.8281 23.6465 20.7871 23.6055 20.7393 23.5781L17.082 21.3223L16.7197 21.9033L20.3018 24.1113L21.9219 27.0439C21.9834 27.1465 22.0996 27.2148 22.2227 27.2148V27.2148Z" fill="#4D2419"/>
<path d="M5.88482 27.2148H7.18365C7.29986 27.2148 7.40923 27.1533 7.47076 27.0576L8.03814 26.1689C8.07232 26.1143 8.09283 26.0459 8.09283 25.9707L8.00396 23.0586L9.67193 18.1641C9.70611 18.0615 9.69244 17.9453 9.62408 17.8564C9.56256 17.7676 9.45318 17.7129 9.34381 17.7129H8.40045C8.25689 17.7129 8.13384 17.8018 8.07916 17.9316L6.17193 22.7852C6.15826 22.8262 6.15142 22.8672 6.15142 22.9082V25.6904L5.5772 26.709C5.51568 26.8115 5.51568 26.9414 5.5772 27.0508C5.6524 27.1533 5.76177 27.2148 5.88482 27.2148V27.2148ZM6.99908 26.5312H6.47271L6.80083 25.9502C6.82818 25.9023 6.84185 25.8408 6.84185 25.7793V22.9697L8.6397 18.3965H8.87213L7.34087 22.9014C7.3272 22.9424 7.32037 22.9834 7.32037 23.0244L7.40923 25.8955L6.99908 26.5312Z" fill="#4D2419"/>
<path d="M0.935547 19.5107L1.33203 18.9502L1.13379 19.2305L1.33887 18.957C1.31152 18.9365 0.723633 18.4785 0.696289 17.0908L0.0126953 17.1045C0.046875 18.8613 0.901367 19.4834 0.935547 19.5107V19.5107Z" fill="#4D2419"/>
<path d="M5.34473 19.6953C6.27441 19.6953 7.12891 19.6816 7.8877 19.6475L7.86035 18.9639C7.1084 18.998 6.26074 19.0117 5.34473 19.0117C3.27344 19.0117 0.183594 18.9229 -2.76269 18.5127L-2.8584 19.1895C0.135743 19.6064 3.25293 19.6953 5.34473 19.6953V19.6953Z" fill="#4D2419"/>
<path d="M8.96777 19.5928C10.8955 19.4629 11.4424 19.2441 11.4971 19.2168L11.3604 18.9023L11.2305 18.5879C11.2236 18.5879 10.7109 18.7861 8.91992 18.9092L8.96777 19.5928Z" fill="#4D2419"/>
</g>
</svg>
