<svg width="35" height="50" viewBox="0 0 35 50" fill="none" xmlns="http://www.w3.org/2000/svg">
<path d="M15.8003 48V46.308H11.9363V45.384L15.9563 40.272H17.0963V45.252H17.8883V46.308H17.0963V48H15.8003ZM13.2083 45.288H16.0043V41.76L13.2083 45.288ZM18.6919 48V47.352C18.8999 46.864 19.1879 46.424 19.5559 46.032C19.9319 45.64 20.3319 45.26 20.7559 44.892C21.0759 44.612 21.3399 44.376 21.5479 44.184C21.7639 43.984 21.9319 43.804 22.0519 43.644C22.1719 43.484 22.2559 43.32 22.3039 43.152C22.3519 42.976 22.3759 42.772 22.3759 42.54C22.3759 42.124 22.2559 41.808 22.0159 41.592C21.7759 41.376 21.3759 41.268 20.8159 41.268C20.5119 41.268 20.1999 41.3 19.8799 41.364C19.5679 41.428 19.2679 41.516 18.9799 41.628V40.476C19.2599 40.38 19.5919 40.304 19.9759 40.248C20.3599 40.184 20.7239 40.152 21.0679 40.152C21.9319 40.152 22.5839 40.364 23.0239 40.788C23.4639 41.212 23.6839 41.792 23.6839 42.528C23.6839 42.896 23.6199 43.224 23.4919 43.512C23.3639 43.792 23.1879 44.06 22.9639 44.316C22.7399 44.564 22.4799 44.82 22.1839 45.084C21.8159 45.404 21.4679 45.716 21.1399 46.02C20.8199 46.316 20.5599 46.64 20.3599 46.992H23.7679V48H18.6919ZM26.5014 43.68C25.9334 43.68 25.5054 43.524 25.2174 43.212C24.9374 42.892 24.7974 42.488 24.7974 42C24.7974 41.432 24.9374 40.984 25.2174 40.656C25.5054 40.32 25.9334 40.152 26.5014 40.152C27.0694 40.152 27.4934 40.32 27.7734 40.656C28.0534 40.984 28.1934 41.432 28.1934 42C28.1934 42.488 28.0534 42.892 27.7734 43.212C27.4934 43.524 27.0694 43.68 26.5014 43.68ZM25.9734 48L30.0654 40.272H31.2894L27.1974 48H25.9734ZM26.5014 42.888C26.8134 42.888 27.0374 42.808 27.1734 42.648C27.3094 42.488 27.3774 42.264 27.3774 41.976C27.3774 41.624 27.3054 41.368 27.1614 41.208C27.0254 41.04 26.8054 40.956 26.5014 40.956C26.1974 40.956 25.9734 41.04 25.8294 41.208C25.6934 41.368 25.6254 41.624 25.6254 41.976C25.6254 42.264 25.6934 42.488 25.8294 42.648C25.9654 42.808 26.1894 42.888 26.5014 42.888ZM30.7974 48.12C30.2294 48.12 29.8014 47.964 29.5134 47.652C29.2334 47.332 29.0934 46.928 29.0934 46.44C29.0934 45.872 29.2334 45.424 29.5134 45.096C29.8014 44.76 30.2294 44.592 30.7974 44.592C31.3654 44.592 31.7894 44.76 32.0694 45.096C32.3494 45.424 32.4894 45.872 32.4894 46.44C32.4894 46.928 32.3494 47.332 32.0694 47.652C31.7894 47.964 31.3654 48.12 30.7974 48.12ZM30.7974 47.328C31.1094 47.328 31.3334 47.248 31.4694 47.088C31.6054 46.928 31.6734 46.704 31.6734 46.416C31.6734 46.064 31.6014 45.808 31.4574 45.648C31.3214 45.48 31.1014 45.396 30.7974 45.396C30.4934 45.396 30.2694 45.48 30.1254 45.648C29.9894 45.808 29.9214 46.064 29.9214 46.416C29.9214 46.704 29.9894 46.928 30.1254 47.088C30.2614 47.248 30.4854 47.328 30.7974 47.328Z" fill="#8F80BA"/>
<path d="M22.3604 21.9023C22.3604 21.9023 21.3145 22.3535 16.3447 22.3535C11.375 22.3535 3.43847 21.875 0.334958 19.1406C0.560544 18.9561 3.67773 15.3125 12.0996 15.3125C20.5215 15.3125 22.3535 15.3125 22.3535 15.3125L22.3604 21.9023Z" fill="#FFCB5C"/>
<path d="M10.2402 22.0869C9.8916 21.2735 9.84375 20.3301 9.84375 19.7559C9.84375 19.1133 9.84375 16.8369 9.84375 15.4082C10.3223 15.3672 10.8213 15.3399 11.3477 15.3262V20.1045C11.3477 21.5743 12.0039 22.1485 12.1133 22.2373C11.498 22.1963 10.8691 22.1485 10.2402 22.0869Z" fill="#FFB30F"/>
<path d="M5.67383 18.8603C5.67383 20.3711 6.10449 21.3691 6.17285 21.5127C5.53027 21.3828 4.9082 21.2324 4.31348 21.0683C4.14258 20.3984 3.96485 19.5371 3.96485 18.833C3.96485 18.2793 4.07422 17.459 4.19727 16.6865C4.75098 16.4609 5.37305 16.249 6.06348 16.0576C5.87891 17.0146 5.67383 18.2109 5.67383 18.8603Z" fill="#FFB30F"/>
<path d="M20.0977 18.7305H10.3906L4.16992 15.3125H20.0977V18.7305Z" fill="#2B6E37"/>
<path d="M28.1641 15.3125H19.0039L20.5762 20.1865C20.5762 20.1865 21.1777 22.1143 23.6592 22.1143C26.1406 22.1143 26.7285 19.9473 26.7285 19.9473L28.1641 15.3125Z" fill="#399349"/>
<path d="M19.4072 21.0547L17.5 25.9082V28.7793L16.8848 29.873H18.1836L18.751 28.9844L18.6621 26.0107L20.3506 21.0547H19.4072Z" fill="#F89720"/>
<path d="M10.999 7.49902L6.6377 29.8799L3.31543 28.5742L1.70898 29.873V28.5059L3.14453 27.4805L5.87891 28.4443L10.1992 6.42578H11.0059L10.999 7.49902Z" fill="#F89720"/>
<path d="M10.9171 5.12695C11.9493 5.12695 13.1183 6.07715 12.6329 7.41016C12.1544 8.74316 16.4132 13.4531 17.5138 15.7842C18.6144 18.1152 19.1681 22.3535 16.3517 22.3535C13.5353 22.3535 12.9132 18.833 12.5031 16.7891C12.0929 14.7451 11.5392 8.51074 11.3341 7.98438C11.129 7.45801 8.57923 5.12695 10.9171 5.12695V5.12695Z" fill="#47B85B"/>
<path d="M18.1494 21.164C17.8555 21.8818 17.2881 22.3535 16.3447 22.3535C13.5283 22.3535 12.9062 18.833 12.4961 16.789C12.1406 15.0117 11.6758 10.0693 11.4229 8.46286C11.9287 10.8281 14.3418 21.164 18.1494 21.164V21.164Z" fill="#399349"/>
<path d="M28.1641 15.3125L26.7285 19.9473C26.7285 19.9473 26.1475 22.1074 23.6592 22.1074C25.6348 18.1494 25.3135 15.3125 25.3135 15.3125H28.1641Z" fill="#2B6E37"/>
<path d="M25.5322 19.3457L26.5371 22.6338L32.5596 26.1816L34.6582 29.873H33.2227L31.5615 26.8652L25.7236 23.2627L24.2676 19.3457H25.5322Z" fill="#F89720"/>
<path d="M28.7656 16.0303C28.7998 16.0303 28.834 16.0234 28.8682 16.0166L31.9443 15.0801C31.9854 15.0664 32.0264 15.0459 32.0605 15.0186C32.1768 14.9229 35 12.5918 35 5.12695H34.3164C34.3164 11.7578 32.0195 14.123 31.6777 14.4443L31.1582 14.6016C31.4795 14.1094 32.1904 12.2227 32.1904 5.12695H31.5068C31.5068 9.50195 31.2334 11.7852 31.001 12.9336C30.8232 13.8291 30.6455 14.1572 30.6113 14.2119L28.6016 15.3945C28.4512 15.4834 28.3896 15.668 28.4648 15.8252C28.5127 15.9551 28.6357 16.0303 28.7656 16.0303V16.0303Z" fill="#2B6E37"/>
<path d="M29.8115 14.4307C31.4316 14.4307 32.8809 14.6973 32.8809 16.6114C32.8809 18.5254 31.0693 22.6338 29.8184 22.6338C27.0977 22.6338 26.7285 19.9473 26.7285 19.9473V15.3125C26.7285 15.3125 27.7881 14.4307 29.8115 14.4307Z" fill="#399349"/>
<path d="M29.791 18.6758C29.2247 18.6758 28.7656 17.9719 28.7656 17.1035C28.7656 16.2352 29.2247 15.5313 29.791 15.5313C30.3573 15.5313 30.8164 16.2352 30.8164 17.1035C30.8164 17.9719 30.3573 18.6758 29.791 18.6758Z" fill="#FFCB5C"/>
<path d="M29.791 16.2832C29.791 16.0166 29.832 15.7636 29.9141 15.5449C30.4268 15.6338 30.8164 16.3037 30.8164 17.1035C30.8164 17.3701 30.7754 17.623 30.6934 17.8418C30.1875 17.7529 29.791 17.0898 29.791 16.2832Z" fill="#FFE3A8"/>
<path d="M1.70898 30.2148C1.78417 30.2148 1.85937 30.1875 1.92089 30.1396L3.37011 28.9639L6.50097 30.1875C6.59668 30.2217 6.69922 30.2148 6.78808 30.167C6.87695 30.1191 6.93847 30.0303 6.95898 29.9346L11.3271 7.56055L10.6572 7.43066L6.37109 29.4014L3.43847 28.2529C3.32226 28.2051 3.19238 28.2256 3.09667 28.3076L2.04394 29.1553V28.6768L3.19238 27.8564L5.76269 28.752C5.85839 28.7861 5.96093 28.7725 6.04297 28.7246C6.13183 28.6768 6.18652 28.5879 6.20703 28.4922L10.5342 6.49414L9.86426 6.36426L5.61914 27.9863L3.2539 27.1592C3.15136 27.125 3.03515 27.1387 2.93945 27.207L1.5039 28.2324C1.41503 28.2939 1.36035 28.4033 1.36035 28.5127V29.8799C1.36035 30.0098 1.43554 30.1328 1.55175 30.1875C1.60644 30.2012 1.66113 30.2148 1.70898 30.2148V30.2148Z" fill="#4D2419"/>
<path d="M29.8184 22.9756C30.7891 22.9756 31.6846 21.417 32.1289 20.4941C32.792 19.1133 33.2227 17.5889 33.2227 16.6182C33.2227 15.6133 32.8535 14.9023 32.1152 14.5059C31.4385 14.1436 30.5703 14.0889 29.8115 14.0889C27.6924 14.0889 26.5576 15.0117 26.5098 15.0459C26.4346 15.1143 26.3867 15.21 26.3867 15.3057V19.9404V19.9883C26.3936 20.0225 26.8311 22.9756 29.8184 22.9756ZM29.8115 14.7725C31.4932 14.7725 32.5391 15.0801 32.5391 16.6113C32.5391 17.4727 32.1289 18.915 31.5137 20.1934C30.8164 21.6357 30.1465 22.292 29.8184 22.292C27.5283 22.292 27.1113 20.1729 27.0703 19.9199V15.4902C27.3916 15.2783 28.3281 14.7725 29.8115 14.7725V14.7725Z" fill="#4D2419"/>
<path d="M29.791 19.0176C30.5566 19.0176 31.1582 18.1768 31.1582 17.1035C31.1582 16.0303 30.5566 15.1895 29.791 15.1895C29.0254 15.1895 28.4238 16.0303 28.4238 17.1035C28.4238 18.1768 29.0254 19.0176 29.791 19.0176ZM29.791 15.873C30.1123 15.873 30.4746 16.3789 30.4746 17.1035C30.4746 17.8281 30.1123 18.334 29.791 18.334C29.4697 18.334 29.1074 17.8281 29.1074 17.1035C29.1074 16.3789 29.4697 15.873 29.791 15.873Z" fill="#4D2419"/>
<path d="M23.6592 22.4493C24.2744 22.4493 24.8281 22.3262 25.3203 22.0869L25.0195 21.4717C24.623 21.67 24.165 21.7657 23.6592 21.7657C21.4512 21.7657 20.9043 20.0977 20.9043 20.0772L19.4756 15.6475H26.3867V19.8858C26.3457 20.0157 26.1816 20.4463 25.8125 20.8565L26.3252 21.3145C26.8789 20.6993 27.0566 20.0498 27.0635 20.0225C27.0703 19.9952 27.0771 19.961 27.0771 19.9336V15.3125C27.0771 15.1211 26.9268 14.9707 26.7354 14.9707H19.0107C18.9014 14.9707 18.7988 15.0254 18.7373 15.1143C18.6758 15.2032 18.6553 15.3194 18.6895 15.4219L20.2617 20.2959C20.2686 20.3164 20.4395 20.8565 20.9521 21.3897C21.4033 21.8682 22.2578 22.4493 23.6592 22.4493Z" fill="#4D2419"/>
<path d="M32.0537 15.0186C32.1768 14.9229 35 12.5918 35 5.12695H34.3164C34.3164 8.83887 33.585 11.1904 32.9697 12.5029C32.3066 13.9248 31.6367 14.4785 31.6299 14.4785L32.0537 15.0186Z" fill="#4D2419"/>
<path d="M31.0352 14.7451C31.2266 14.5879 32.1836 13.3916 32.1836 5.12695H31.5C31.5 9.50195 31.2266 11.7852 30.9941 12.9336C30.7959 13.9111 30.6045 14.2188 30.5977 14.2188L31.0352 14.7451Z" fill="#4D2419"/>
<path d="M12.2363 14.9707H9.43359V15.6543H12.2363V14.9707Z" fill="#4D2419"/>
<path d="M7.75879 18.5186L8.02539 17.8897C6.59668 17.2881 5.50293 16.2764 4.91504 15.6543H8.47656V14.9707H4.16992C4.04004 14.9707 3.92383 15.0459 3.86231 15.1621C3.80762 15.2784 3.81445 15.4151 3.89649 15.5176C3.95801 15.5996 5.4209 17.5342 7.75879 18.5186Z" fill="#4D2419"/>
<path d="M10.3906 19.0723H12.9199V18.3887H10.3906C9.90527 18.3887 9.41309 18.3271 8.92773 18.1973L8.75684 18.8604C9.29688 19.0039 9.85059 19.0723 10.3906 19.0723Z" fill="#4D2419"/>
<path d="M16.3515 22.6953C17.1854 22.6953 17.8485 22.3535 18.2587 21.7041C18.6825 21.041 18.8056 20.0908 18.7372 19.0723H20.1044C20.2138 19.0723 20.3163 19.0176 20.3778 18.9287C20.4393 18.8398 20.4599 18.7236 20.4257 18.6211L19.3319 15.2031C19.2841 15.0596 19.1542 14.9639 19.0038 14.9639H17.2743C17.1513 14.9639 17.0419 15.0254 16.9804 15.1348C16.9188 15.2441 16.9188 15.3672 16.9804 15.4766C17.0692 15.6406 17.1513 15.791 17.2196 15.9277C18.0399 17.6572 18.4364 20.1592 17.6913 21.335C17.4042 21.7861 16.9667 22.0049 16.3583 22.0049C13.9042 22.0049 13.289 18.9287 12.8788 16.8984L12.8446 16.7139C12.6327 15.6543 12.3798 13.4395 12.1542 11.4912C11.8808 9.11231 11.7645 8.11426 11.6552 7.85449C11.5936 7.69727 11.4433 7.49902 11.1766 7.1709C10.9511 6.88379 10.664 6.52832 10.4794 6.20019C10.2333 5.76953 10.288 5.62598 10.2948 5.6123C10.3222 5.55762 10.4862 5.46191 10.9237 5.46191C11.4091 5.46191 11.9218 5.72168 12.1952 6.11133C12.3593 6.35059 12.5165 6.74707 12.3251 7.28711C11.9901 8.20996 13.1181 9.8916 15.0184 12.5508C15.4013 13.084 15.7909 13.6377 16.1395 14.1436L16.7069 13.7607C16.3583 13.248 15.9618 12.6943 15.579 12.1543C14.8612 11.1563 14.1229 10.1172 13.6171 9.24902C12.9061 8.0459 12.9335 7.64258 12.9745 7.51953C13.2069 6.88379 13.1317 6.24121 12.7626 5.72168C12.3593 5.14746 11.6415 4.77832 10.9306 4.77832C10.6845 4.77832 9.94618 4.77832 9.68642 5.31152C9.36513 5.96777 10.0761 6.87012 10.6503 7.58789C10.8007 7.7793 10.9921 8.01855 11.0263 8.10059C11.1083 8.33301 11.3065 10.0488 11.4774 11.5664C11.703 13.5283 11.9559 15.7568 12.1747 16.8506L12.2089 17.0352C12.6259 19.1543 13.3368 22.6953 16.3515 22.6953ZM19.6327 18.3887H18.662C18.5184 17.4316 18.2177 16.4609 17.8417 15.6543H18.7645L19.6327 18.3887Z" fill="#4D2419"/>
<path d="M33.2227 30.2148H34.6582C34.7812 30.2148 34.8906 30.1533 34.9521 30.0439C35.0137 29.9346 35.0137 29.8115 34.9521 29.7021L32.8535 26.0107C32.8262 25.9561 32.7783 25.915 32.7305 25.8877L26.8242 22.4082L25.8535 19.2432C25.8125 19.0996 25.6758 19.0039 25.5254 19.0039H24.2676C24.1582 19.0039 24.0488 19.0586 23.9873 19.1475C23.9258 19.2363 23.9053 19.3594 23.9463 19.4619L25.4023 23.3789C25.4297 23.4473 25.4775 23.5088 25.5459 23.5498L26.6191 24.2129L26.9814 23.6318L26.0107 23.0303L24.7666 19.6807H25.2861L26.2227 22.7295C26.25 22.8115 26.3047 22.8799 26.373 22.9209L32.3135 26.4209L34.0703 29.5312H33.4209L31.8555 26.7012C31.8281 26.6465 31.7871 26.6055 31.7393 26.5781L28.082 24.3223L27.7197 24.9033L31.3018 27.1113L32.9219 30.0439C32.9834 30.1465 33.0996 30.2148 33.2227 30.2148V30.2148Z" fill="#4D2419"/>
<path d="M16.8848 30.2148H18.1836C18.2999 30.2148 18.4092 30.1533 18.4708 30.0576L19.0381 29.1689C19.0723 29.1143 19.0928 29.0459 19.0928 28.9707L19.004 26.0586L20.6719 21.1641C20.7061 21.0615 20.6924 20.9453 20.6241 20.8564C20.5626 20.7676 20.4532 20.7129 20.3438 20.7129H19.4004C19.2569 20.7129 19.1338 20.8018 19.0792 20.9316L17.1719 25.7852C17.1583 25.8262 17.1514 25.8672 17.1514 25.9082V28.6904L16.5772 29.709C16.5157 29.8115 16.5157 29.9414 16.5772 30.0508C16.6524 30.1533 16.7618 30.2148 16.8848 30.2148V30.2148ZM17.9991 29.5312H17.4727L17.8008 28.9502C17.8282 28.9023 17.8419 28.8408 17.8419 28.7793V25.9697L19.6397 21.3965H19.8721L18.3409 25.9014C18.3272 25.9424 18.3204 25.9834 18.3204 26.0244L18.4092 28.8955L17.9991 29.5312Z" fill="#4D2419"/>
<path d="M11.9355 22.5107L12.332 21.9502L12.1338 22.2305L12.3389 21.957C12.3115 21.9365 11.7236 21.4785 11.6963 20.0908L11.0127 20.1045C11.0469 21.8613 11.9014 22.4834 11.9355 22.5107V22.5107Z" fill="#4D2419"/>
<path d="M5.87891 21.6836L6.49414 21.376L6.18652 21.5195L6.49414 21.3828C6.4873 21.376 6.02246 20.3711 6.02246 18.8672H5.33887C5.33203 20.5078 5.85156 21.6357 5.87891 21.6836Z" fill="#4D2419"/>
<path d="M7.10937 22.0322L7.22559 21.3554C4.2998 20.8633 2.16015 20.1113 0.854491 19.1201C2.24219 17.8418 3.97851 17.083 5.22265 16.666L5.00391 16.0166C3.63672 16.4746 1.68848 17.3359 0.18457 18.8125L0.123044 18.874C0.0410132 18.9355 -1.62199e-06 19.0312 -1.62199e-06 19.1338C-1.62199e-06 19.2363 0.0410148 19.332 0.11621 19.3935C1.46973 20.5967 3.82129 21.4785 7.10937 22.0322V22.0322Z" fill="#4D2419"/>
<path d="M16.3447 22.6953C17.2744 22.6953 18.1289 22.6816 18.8877 22.6475L18.8604 21.9639C18.1084 21.998 17.2607 22.0117 16.3447 22.0117C14.2734 22.0117 11.1836 21.9229 8.23731 21.5127L8.1416 22.1895C11.1357 22.6064 14.2529 22.6953 16.3447 22.6953V22.6953Z" fill="#4D2419"/>
<path d="M19.9678 22.5928C21.8955 22.4629 22.4424 22.2441 22.4971 22.2168L22.3604 21.9023L22.2305 21.5879C22.2236 21.5879 21.7109 21.7861 19.9199 21.9092L19.9678 22.5928Z" fill="#4D2419"/>
</svg>
